<?xml version="1.0" encoding="utf-8"?>
<!-- Generator: Adobe Illustrator 19.2.1, SVG Export Plug-In . SVG Version: 6.00 Build 0)  -->
<svg version="1.1" id="Capa_1" xmlns="http://www.w3.org/2000/svg" xmlns:xlink="http://www.w3.org/1999/xlink" x="0px" y="0px"
	 viewBox="0 0 158.5 47.4" style="enable-background:new 0 0 158.5 47.4;" xml:space="preserve">
<style type="text/css">
	.st0{fill:#FFFFFF;}
	.st1{fill-rule:evenodd;clip-rule:evenodd;fill:#FFFFFF;}
	.st2{opacity:0.7021;fill-rule:evenodd;clip-rule:evenodd;fill:#FFD4B8;}
</style>
<g>
	<g>
		<path class="st0" d="M69.4,9.6h0.8l-1,4.8h3.1l-0.1,0.7h-3.9L69.4,9.6z"/>
		<path class="st0" d="M77.2,13.7h-3.1l-0.9,1.4h-0.9L76,9.6h0.8l1.5,5.5h-0.8L77.2,13.7z M77,13.1l-0.7-2.7l-1.8,2.7H77z"/>
		<path class="st0" d="M84.2,12.6c0.1,0.2,0.2,0.4,0.2,0.7c0,0.6-0.2,1-0.7,1.3c-0.4,0.3-1.1,0.4-1.8,0.4h-2.8l1.1-5.5h2.5
			c0.6,0,1,0.1,1.3,0.3c0.3,0.2,0.5,0.5,0.5,0.9c0,0.4-0.1,0.7-0.3,0.9s-0.5,0.4-0.8,0.5C83.9,12.3,84.1,12.4,84.2,12.6z M83.2,14.2
			c0.3-0.2,0.4-0.5,0.4-0.8c0-0.3-0.1-0.5-0.3-0.6c-0.2-0.1-0.5-0.2-0.9-0.2h-1.9l-0.4,1.8H82C82.5,14.4,82.9,14.3,83.2,14.2z
			 M81,10.2L80.6,12h1.7c0.5,0,0.8-0.1,1.1-0.3s0.4-0.4,0.4-0.8c0-0.2-0.1-0.4-0.3-0.5c-0.2-0.1-0.5-0.2-0.8-0.2H81z"/>
		<path class="st0" d="M86.7,14.8c-0.4-0.2-0.7-0.5-0.9-0.8c-0.2-0.4-0.3-0.8-0.3-1.2c0-0.6,0.1-1.2,0.4-1.7
			c0.3-0.5,0.7-0.9,1.2-1.2c0.5-0.3,1.1-0.4,1.8-0.4c0.6,0,1,0.1,1.5,0.3c0.4,0.2,0.7,0.5,0.9,0.8c0.2,0.4,0.3,0.8,0.3,1.2
			c0,0.6-0.1,1.2-0.4,1.7c-0.3,0.5-0.7,0.9-1.2,1.2c-0.5,0.3-1.1,0.4-1.8,0.4C87.6,15.1,87.1,15,86.7,14.8z M89.6,14.1
			c0.4-0.2,0.7-0.5,0.9-0.9c0.2-0.4,0.3-0.8,0.3-1.3c0-0.5-0.2-0.9-0.5-1.2c-0.3-0.3-0.8-0.5-1.4-0.5c-0.5,0-1,0.1-1.4,0.3
			c-0.4,0.2-0.7,0.5-0.9,0.9c-0.2,0.4-0.3,0.8-0.3,1.3c0,0.5,0.2,0.9,0.5,1.2s0.8,0.5,1.4,0.5C88.7,14.4,89.2,14.3,89.6,14.1z"/>
		<path class="st0" d="M97.2,12.5c-0.3,0.4-0.7,0.6-1.3,0.8l1.1,1.8h-0.9l-1-1.7H95h-1.5l-0.3,1.7h-0.8l1.1-5.5h2.1
			c0.7,0,1.2,0.1,1.6,0.4c0.4,0.3,0.6,0.7,0.6,1.2C97.7,11.7,97.5,12.2,97.2,12.5z M96.4,12.3c0.3-0.3,0.5-0.6,0.5-1.1
			c0-0.3-0.1-0.6-0.4-0.8c-0.2-0.2-0.6-0.3-1-0.3h-1.4l-0.5,2.5H95C95.6,12.7,96.1,12.6,96.4,12.3z"/>
		<path class="st0" d="M102.2,13.7h-3.1l-0.9,1.4h-0.9l3.8-5.5h0.8l1.5,5.5h-0.8L102.2,13.7z M102.1,13.1l-0.7-2.7l-1.8,2.7H102.1z"
			/>
		<path class="st0" d="M106.1,10.2h-2l0.1-0.7h4.8l-0.1,0.7h-2l-1,4.8h-0.8L106.1,10.2z"/>
		<path class="st0" d="M110,14.8c-0.4-0.2-0.7-0.5-0.9-0.8c-0.2-0.4-0.3-0.8-0.3-1.2c0-0.6,0.1-1.2,0.4-1.7c0.3-0.5,0.7-0.9,1.2-1.2
			c0.5-0.3,1.1-0.4,1.8-0.4c0.6,0,1,0.1,1.5,0.3c0.4,0.2,0.7,0.5,0.9,0.8c0.2,0.4,0.3,0.8,0.3,1.2c0,0.6-0.1,1.2-0.4,1.7
			c-0.3,0.5-0.7,0.9-1.2,1.2c-0.5,0.3-1.1,0.4-1.8,0.4C110.9,15.1,110.4,15,110,14.8z M112.9,14.1c0.4-0.2,0.7-0.5,0.9-0.9
			c0.2-0.4,0.3-0.8,0.3-1.3c0-0.5-0.2-0.9-0.5-1.2c-0.3-0.3-0.8-0.5-1.4-0.5c-0.5,0-1,0.1-1.4,0.3c-0.4,0.2-0.7,0.5-0.9,0.9
			c-0.2,0.4-0.3,0.8-0.3,1.3c0,0.5,0.2,0.9,0.5,1.2s0.8,0.5,1.4,0.5C112.1,14.4,112.5,14.3,112.9,14.1z"/>
		<path class="st0" d="M120.6,12.5c-0.3,0.4-0.7,0.6-1.3,0.8l1.1,1.8h-0.9l-1-1.7h-0.2h-1.5l-0.3,1.7h-0.8l1.1-5.5h2.1
			c0.7,0,1.2,0.1,1.6,0.4c0.4,0.3,0.6,0.7,0.6,1.2C121,11.7,120.9,12.2,120.6,12.5z M119.7,12.3c0.3-0.3,0.5-0.6,0.5-1.1
			c0-0.3-0.1-0.6-0.4-0.8c-0.2-0.2-0.6-0.3-1-0.3h-1.4l-0.5,2.5h1.4C118.9,12.7,119.4,12.6,119.7,12.3z"/>
		<path class="st0" d="M122.7,9.6h0.8l-1.1,5.5h-0.8L122.7,9.6z"/>
		<path class="st0" d="M125.4,14.8c-0.4-0.2-0.7-0.5-0.9-0.8c-0.2-0.4-0.3-0.8-0.3-1.2c0-0.6,0.1-1.2,0.4-1.7
			c0.3-0.5,0.7-0.9,1.2-1.2c0.5-0.3,1.1-0.4,1.8-0.4c0.6,0,1,0.1,1.5,0.3c0.4,0.2,0.7,0.5,0.9,0.8c0.2,0.4,0.3,0.8,0.3,1.2
			c0,0.6-0.1,1.2-0.4,1.7c-0.3,0.5-0.7,0.9-1.2,1.2c-0.5,0.3-1.1,0.4-1.8,0.4C126.3,15.1,125.8,15,125.4,14.8z M128.3,14.1
			c0.4-0.2,0.7-0.5,0.9-0.9c0.2-0.4,0.3-0.8,0.3-1.3c0-0.5-0.2-0.9-0.5-1.2c-0.3-0.3-0.8-0.5-1.4-0.5c-0.5,0-1,0.1-1.4,0.3
			c-0.4,0.2-0.7,0.5-0.9,0.9c-0.2,0.4-0.3,0.8-0.3,1.3c0,0.5,0.2,0.9,0.5,1.2s0.8,0.5,1.4,0.5C127.5,14.4,127.9,14.3,128.3,14.1z"/>
		<path class="st0" d="M131.6,15c-0.4-0.1-0.7-0.3-0.9-0.5l0.4-0.6c0.2,0.2,0.5,0.3,0.8,0.5c0.3,0.1,0.7,0.2,1,0.2
			c0.5,0,0.8-0.1,1.1-0.2c0.3-0.2,0.4-0.4,0.4-0.7c0-0.2-0.1-0.3-0.2-0.4c-0.1-0.1-0.2-0.2-0.4-0.3c-0.2-0.1-0.4-0.1-0.7-0.2
			c-0.4-0.1-0.7-0.2-0.9-0.3c-0.2-0.1-0.4-0.2-0.6-0.4c-0.2-0.2-0.2-0.4-0.2-0.7c0-0.3,0.1-0.7,0.3-0.9s0.5-0.5,0.8-0.6
			c0.4-0.1,0.8-0.2,1.2-0.2c0.4,0,0.7,0,1,0.1c0.3,0.1,0.6,0.2,0.8,0.3l-0.3,0.6c-0.2-0.1-0.5-0.3-0.7-0.3c-0.3-0.1-0.5-0.1-0.8-0.1
			c-0.5,0-0.8,0.1-1.1,0.3c-0.3,0.2-0.4,0.4-0.4,0.7c0,0.2,0.1,0.3,0.2,0.4c0.1,0.1,0.3,0.2,0.4,0.3c0.2,0.1,0.4,0.1,0.7,0.2
			c0.4,0.1,0.7,0.2,0.9,0.3s0.4,0.2,0.6,0.4c0.2,0.2,0.2,0.4,0.2,0.7c0,0.4-0.1,0.7-0.3,0.9s-0.5,0.5-0.9,0.6
			c-0.4,0.1-0.8,0.2-1.3,0.2C132.4,15.1,132,15.1,131.6,15z"/>
	</g>
	<g>
		<path class="st0" d="M157.1,18.6c0.4,0.2,0.8,0.6,1,1c0.2,0.4,0.4,0.9,0.4,1.4c0,0.5-0.1,1-0.4,1.4c-0.2,0.4-0.6,0.7-1,1
			c-0.4,0.2-0.9,0.4-1.4,0.4s-1-0.1-1.4-0.4c-0.4-0.2-0.8-0.6-1-1s-0.4-0.9-0.4-1.4c0-0.5,0.1-0.9,0.4-1.4s0.6-0.7,1-1
			c0.4-0.2,0.9-0.4,1.4-0.4C156.2,18.2,156.7,18.4,157.1,18.6z M156.8,22.8c0.3-0.2,0.6-0.5,0.8-0.8c0.2-0.3,0.3-0.7,0.3-1.1
			c0-0.4-0.1-0.8-0.3-1.1s-0.5-0.6-0.8-0.8c-0.3-0.2-0.7-0.3-1.2-0.3c-0.4,0-0.8,0.1-1.2,0.3c-0.3,0.2-0.6,0.5-0.8,0.8
			s-0.3,0.7-0.3,1.1s0.1,0.8,0.3,1.1c0.2,0.3,0.5,0.6,0.8,0.8c0.3,0.2,0.7,0.3,1.1,0.3S156.5,23,156.8,22.8z M157,21.1
			c-0.1,0.2-0.2,0.3-0.4,0.4l0.7,1h-0.8l-0.6-0.9h0h-0.5v0.9h-0.8v-3h1.3c0.4,0,0.7,0.1,1,0.3c0.2,0.2,0.4,0.4,0.4,0.8
			C157.1,20.7,157.1,20.9,157,21.1z M155.7,21c0.2,0,0.3,0,0.4-0.1c0.1-0.1,0.2-0.2,0.2-0.3s-0.1-0.3-0.2-0.3
			c-0.1-0.1-0.2-0.1-0.4-0.1h-0.5V21H155.7z"/>
	</g>
	<g>
		<path class="st0" d="M64.9,30.8c-0.7-0.3-1.3-0.8-1.7-1.4l2-1.9c0.6,0.9,1.4,1.4,2.4,1.4c1.2,0,1.9-0.7,2.2-2l1.3-6.3h-4.7
			l0.5-2.4h7.8l-1.8,8.5c-0.3,1.6-0.9,2.8-1.8,3.5c-0.9,0.7-2,1.1-3.5,1.1C66.5,31.3,65.6,31.2,64.9,30.8z"/>
		<path class="st0" d="M84.3,28.4H78l-1.7,2.8H73l8.7-12.9h3.1L88,31.1h-3.1L84.3,28.4z M83.8,26.1l-1.1-5l-3.2,5H83.8z"/>
		<path class="st0" d="M104.4,18.2l-2.7,12.9h-2.5l-5-8.1l-1.7,8.1h-3.1l2.7-12.9h2.6l5,8.1l1.7-8.1H104.4z"/>
		<path class="st0" d="M120.4,18.2l-8.5,12.9h-3l-3.1-12.9h3.2l2.2,9.2l6.1-9.2H120.4z"/>
		<path class="st0" d="M121.5,18.2h3.1l-2.7,12.9h-3.1L121.5,18.2z"/>
		<path class="st0" d="M130.3,20.6l-0.6,2.8h6.2l-0.5,2.3h-6.2l-0.6,3h7.3l-0.5,2.4h-10.4l2.7-12.9h10.1l-0.5,2.4H130.3z"/>
		<path class="st0" d="M150.3,25.3c-0.7,0.9-1.6,1.5-2.8,1.8l2.3,4h-3.3l-2.1-3.6h-2.6l-0.7,3.6h-3.1l2.7-12.9h5.5
			c1.7,0,2.9,0.3,3.9,1c0.9,0.7,1.4,1.7,1.4,2.9C151.3,23.4,150.9,24.5,150.3,25.3z M147.3,24.5c0.6-0.5,0.9-1.1,0.9-2
			c0-0.6-0.2-1.1-0.7-1.4c-0.4-0.3-1.1-0.5-1.9-0.5h-2.4l-0.9,4.5h2.6C145.9,25.1,146.7,24.9,147.3,24.5z"/>
	</g>
	<polygon class="st1" points="56.8,22.1 50.8,22.1 56.2,9.5 62.2,9.5 	"/>
	<path class="st1" d="M35.2,31.4h-7.8c-2.9,0-5.8,1.8-6.9,4.4c-0.6,1.4-1.4,2.8-1,4.1c0.4,1.1,1.5,1.9,2.7,1.9c1.5,0,3,0,4.4-0.5
		c3.1-0.9,5.8-3.2,7-6.1L35.2,31.4z M43.8,25.8h12.5l-2.4,5.6H41.5l-2.6,6c-2.5,5.9-8.8,10-15.5,10c-1.5,0-3-0.1-4.4-0.6
		c-4.2-1.6-6.6-6.6-4.9-10.9c0.8-1.9,1.6-3.8,2.9-5.4c2.5-3,6.4-4.8,10.4-4.8h10.1l4.6-10.7H29.7c1.5-1.3,2.7-3,3.5-4.9
		c0.1-0.2,0.2-0.5,0.2-0.7h17.3L43.8,25.8z"/>
	<path class="st2" d="M26,5.6c-3.5,0-6.8,2.1-8.2,5.3l-0.7,1.7c2.9,0,6,0.4,8.2-1.2c1.2-0.8,2-2,2.5-3.4c0.4-1.1-0.5-2.4-1.7-2.4
		C26.1,5.6,26,5.6,26,5.6z M13.7,37.6H0l8.3-19.4H0.7l2.4-5.6h7.7c0.6-1.3,1.1-2.6,1.7-4c2.2-5,7.6-8.6,13.4-8.6C26,0,26,0,26.1,0
		c4.7,0.1,8.7,4.7,7.3,9.4l0,0l0,0.1l0,0l0,0.1l0,0l0,0.1l0,0l0,0.1l0,0l0,0.1l0,0l0,0.1l0,0l0,0.1l0,0l0,0.1l0,0.1l0,0l0,0.1l0,0
		l0,0.1l0,0l0,0.1l0,0l0,0.1l0,0l0,0.1l0,0l0,0.1l0,0l0,0.1l0,0l0,0.1l0,0l0,0.1l0,0l0,0.1l0,0l0,0.1l0,0l0,0.1l0,0l-0.1,0.1l0,0
		l0,0.1l0,0l0,0.1l0,0l0,0.1l0,0L32.2,12l0,0l0,0l-0.1,0.1l0,0l0,0.1l0,0l0,0.1l0,0l0,0.1l0,0l-0.1,0.1l0,0l0,0.1l0,0l0,0.1l0,0
		l0,0.1l0,0l-0.1,0.1l0,0l0,0l0,0.1l0,0l0,0l0,0l0,0l0,0l0,0l0,0l-0.1,0.1l0,0l0,0l0,0l0,0l0,0l0,0l0,0l0,0l0,0l0,0l0,0l0,0l0,0l0,0
		l0,0l0,0l0,0c-0.1,0.1-0.1,0.1-0.2,0.2l0,0l0,0l0,0l0,0.1l0,0c-0.1,0.1-0.2,0.2-0.2,0.2l0,0l-0.1,0.1l0,0L30,14.7l0,0
		c-0.1,0.1-0.2,0.2-0.3,0.3l0,0l-0.1,0.1c-2.2,1.9-5,3.1-8.1,3.1h-6.9L8.7,32H16c-0.7,1.2-1.3,2.6-1.9,3.9
		C13.9,36.5,13.8,37,13.7,37.6z"/>
</g>
</svg>
