<?xml version="1.0" encoding="utf-8"?>
<!-- Generator: Adobe Illustrator 19.0.0, SVG Export Plug-In . SVG Version: 6.00 Build 0)  -->
<svg version="1.1" id="Layer_1" xmlns="http://www.w3.org/2000/svg" xmlns:xlink="http://www.w3.org/1999/xlink" x="0px" y="0px"
	 viewBox="0 0 483 444" style="enable-background:new 0 0 483 444;" xml:space="preserve">
<style type="text/css">
	.st0{fill:#FFFFFF;}
</style>
<g>
	<g>
		<path class="st0" d="M386.4,349.3c-6.6,0-12-5.4-12-12c0-6.6,5.4-12,12-12c6.6,0,12,5.4,12,12C398.4,344,393,349.3,386.4,349.3z
			 M386.4,328.1c-5.1,0-9.2,4.1-9.2,9.2c0,5.1,4.1,9.2,9.2,9.2s9.2-4.1,9.2-9.2C395.6,332.3,391.5,328.1,386.4,328.1z"/>
		<g>
			<g id="XMLID_145_">
				<path id="XMLID_146_" class="st0" d="M383,332.3c0.7-0.1,1.8-0.2,3-0.2c1.5,0,2.5,0.2,3.3,0.8c0.6,0.5,0.9,1.2,0.9,2.1
					c0,1.3-0.9,2.2-1.8,2.5v0.1c0.7,0.3,1.1,0.9,1.3,1.9c0.3,1.1,0.6,2.5,0.8,2.9h-2.3c-0.1-0.3-0.4-1.1-0.7-2.4
					c-0.3-1.3-0.7-1.6-1.7-1.6h-0.7v4H383V332.3z M385.2,336.6h0.9c1.1,0,1.8-0.6,1.8-1.5c0-0.9-0.6-1.4-1.7-1.4c-0.6,0-0.9,0-1,0.1
					V336.6z"/>
			</g>
		</g>
	</g>
	<path id="XMLID_100_" class="st0" d="M109.4,431.8c23.7-14.6,61.4-28.4,91.6-37c82.8-23.8,170.2-26.2,255-13
		c5.4,0.8,27.1-8.2,15-10.1c-90.8-14.1-183.6-9.7-272.2,15.1c-36.7,10.3-74.8,23.7-107.5,43.8C81.3,436.7,104.9,434.5,109.4,431.8
		L109.4,431.8z"/>
	<g>
		<g>
			<path class="st0" d="M408.7,101.3l-3.2-2.1c-3.2-1.7-7.7,4.1-7.7,4.1c-6.8,6.8-31.6,43.6-40.8,60.8c8.8-30.5,28.2-57.6,28.2-57.6
				c2.8-3.9-0.3-5.3-0.3-5.3l-3.2-2.1c-3.1-1.8-8,4.3-8,4.3c-9.1,9.1-44.5,65-44.5,65c-0.4-3.4-0.3-6.7,0-9.9
				c9.8-29.2,28.4-56.9,28.4-56.9c2.7-4-0.3-5.3-0.3-5.3l-3.2-2.1c-0.7-0.5-1.6-0.4-2.5-0.1c-2.9,0.8-5.5,4.3-5.5,4.3
				c-8.2,8.5-27.4,38.2-37.7,54.3c27.1-70.1,70.6-126.2,76.4-133.7c1.2-1.1,0.3-2.4,0.3-2.4l-5.9-6.5c0,0-1.4-1.8-3.2,0.1
				c-28,34.9-48.9,74.6-62.7,105.2c0,0-0.1,0-0.1,0c-5.6-4.7-7.4-0.9-7.4-0.9c-5.9,9.2-14.5,28.2-12.5,51.4
				c-0.1,0.2-0.1,0.3-0.1,0.3c0,0.1,0.1,0.1,0.1,0.2c0.1,0.7,0.1,1.5,0.2,2.2c0,0,1.7,1.8,4.5,2c0.2,0,0.4,0.1,0.7,0.1
				c0,0,0.1,0,0.1,0c0.3,0,0.6,0,0.8-0.1c0.9-0.1,1.8-0.3,2.8-0.8c0,0,17.1-29.7,29.3-47.5c-4.1,7.1-8.8,18.3-10.5,31.8
				c-3.5,10.7-5.9,21.8-5.3,31.3c0,0-1.2,16.2,5.3,16.8c0,0,3.1,0.7,5.7-9.5c0,0,4-15.4,6.3-23.4c8.3-14.2,30.6-51.6,36.6-54.9
				c0,0-16,23.7-22.2,50.8c-1.4,6.2,4.5,11.2,6.8,7.6c0,0,0,0,0,0c0,0,31.8-54.3,39.1-58.4c0,0-27.1,43.4-26.3,73.7
				c-0.1,2.2,0.9,2.8,0.9,2.8l4.8,3.5c0,0,1.7,1.1,1.8-0.3c-0.1-36.5,34.2-87.7,34.2-87.7C411.8,102.8,408.7,101.3,408.7,101.3z
				 M342.4,109.6c0,0-2.1,3.3-5,8.8c-1.3-0.4-2.2-0.1-2.8,0.2C338,113.9,340.8,110.5,342.4,109.6z M323.6,190.9
				c-0.2-4.8,0.4-10,1.3-15.2c1.1,0.3,2.4,0.3,3.9-0.2C325.7,183.7,323.6,190.9,323.6,190.9z"/>
			<path class="st0" d="M308.3,108.5c0,0-4.2,1.9-10.5,3.6c0-3.3-0.2-6.7-0.7-10.2c0,0-1.7-3.4-5.5-6.1c-2.4-1.8-7.2-4.9-14.5-5.8
				c-10-0.8-16.6,2.6-18.9,4.2c-5,3.4-6.9,8.1-6.3,12.4c0.4,3.1,2.4,6.5,7.7,9c-3.9,3.4-7.8,7.9-11,13.8
				c-8.9-9.3-22.7-14.6-36.2-16.8c0.2-0.2,1.9-5.5,2.8-7.9c8.6-24.9,25.4-70.3,2.7-88.7c-17.6-14.3-51.2,8.6-65.4,18.7
				c-4.8,3.5,6.5,2.5,8.8,0.9c12.5-8.9,39.2-28.1,50.4-10.6c15.3,23.7,1.1,62.6-7.3,86.8c-21.7-1.6-45.1,2.5-61.4,6.1
				c-49,10.8-131.5,40.4-134.2,100.2c0-0.2,0-0.5,0-0.7c0,0.6,0,1.1,0,1.7c0,0.6-0.1,1.1-0.1,1.6c0,3.1,0,6.3,0.1,9.4
				c0,0.5,0,1,0,1.6c0-0.1,0-0.2,0-0.3c0.4,10.9,2.4,21.4,10.3,29.9c15.6,16.8,45.5,12,64.5,4.6c58.4-22.6,96.9-86,122.9-139.2
				c14.3,1.3,27.6,5.1,37.6,13.1c-1.1,3.4-2.2,7-2.9,11.1c-0.9,6.6-1,15.2,1.3,18.8c2.5,4,7.3,7.4,16.1,4.7
				c5.1-2.1,10.7-5.9,16.6-12c9.4-9.8,21.7-26.7,22.8-48.2c3.9-1.2,7.9-2.7,12.1-4.2L308.3,108.5z M96.5,245.1
				c-30.5,17.2-80.1,20-87.2-19.5c11-59.6,93.9-85.5,145.2-95.6c12.1-2.4,28.1-4.4,44.1-3.8C174.4,172.8,142.8,219.1,96.5,245.1z
				 M286.6,112.2c0.6,0.3,0.9,1,1.1,1.9c-2.4,0.3-5,0.6-7.6,0.6C283,112.4,285.3,111.4,286.6,112.2z M259.1,106.4
				c-0.9-3.5,1.2-7.7,11.1-7.7c0,0,7.4-0.2,13.8,4.4l-0.7,1.5c0,0-9.3,0.8-19.3,7.7C261.9,111,259.8,109,259.1,106.4z M276.6,143.8
				c-9.1,15.3-19.5,25.9-23.1,23.7c-3.6-2.2,0.9-16.3,10-31.6c4.2-7,8.6-13,12.6-17.3c1.3-0.2,3.3-0.4,5.7-0.7
				c1.9-0.3,3.9-0.6,6-1.1C287.3,122.7,283.1,132.9,276.6,143.8z"/>
		</g>
		<path id="XMLID_91_" class="st0" d="M308.3,108.5c0,0,2.3,0.5,1.4,1.4C309.7,109.9,307.7,109.2,308.3,108.5z"/>
	</g>
	<g>
		<path id="XMLID_90_" class="st0" d="M332.7,267.7c-0.9,0.7-3.9,1.2-4.5-2.6c0,0-2.7-10.1,4.2-11.5c0,0,6.2-0.6,6.4,4.6
			c0,0.4-0.3,1.3-0.8,1.6c-1.2,0.8-3.7,2.8-4.6,6.3C333.4,266.5,333,267.5,332.7,267.7z"/>
		<path id="XMLID_89_" class="st0" d="M409.7,215.2c-2-0.6-5.7-0.7-6.9-0.7c-15.4,0.4-37.7,3.5-60.2,7.2c4.8-5.8,8.3-9.4,9.8-10.8
			c0.7-0.9,0.1-1.5,0.1-1.5l-7.1-7.9c0,0-0.7-0.5-1.3,0.1c-8,6.8-15.3,15-21.8,23.9c-34.7,6.4-64.9,13.3-64.9,13.3
			c-14.4,3.3-12.7-5.4-12.7-5.4c-7.3,24.8,15.7,18.8,15.7,18.8c18.2-5.9,36.3-10.5,53.4-14.1c-21.7,34.6-33.2,74-35.9,83.8
			c-0.4,1.5-0.1,3.8,0.1,4.2c1.5,2.9,4.5,3.2,6.6,2.8c1.9-0.2,3.5-4.1,3.8-4.8c14.6-42.3,31.9-71.6,44.9-89.8
			c42.2-7.7,73.5-9.3,73.5-9.3c13.1-0.9,10.9,6.7,10.9,6.7C423.9,220.9,415,216.7,409.7,215.2z"/>
		<g>
			<g>
				<path id="XMLID_88_" class="st0" d="M332.7,320.2c6.3-27.1,22.2-50.8,22.2-50.8c-6.5,3.7-32.9,48.5-38.6,58.5
					c-1,1.5-2.4,2.5-3.5,2.8c-1.7,0.3-3.2,0-4.3-0.5c-2.1-1-2.4-3.6-2.5-4.7c-1.8-23,6.7-41.8,12.6-50.9c0,0,1.8-3.8,7.4,0.9
					c0,0,3.5,1.8,0.3,6.5c0,0-14.3,19.7-11.9,41.5c0,0,35.3-55.8,44.5-65c0,0,4.8-6.1,8-4.3l3.2,2.1c0,0,3,1.4,0.3,5.3
					c0,0-22.6,31.4-30.1,64.8C338.7,332.6,331.1,327.2,332.7,320.2z"/>
			</g>
			<g>
				<path id="XMLID_87_" class="st0" d="M352.3,343.1c-0.7-30.3,26.3-73.7,26.3-73.7c-7.4,4.1-39.2,58.5-39.2,58.5
					c-7.7,3.1,34.1-60.5,43.3-69.6c0,0,4.5-5.8,7.7-4.1l3.2,2.1c0,0,3,1.5,0.3,5.3c0,0-34.3,51.2-34.2,87.7
					c-0.1,1.4-1.8,0.3-1.8,0.3l-4.8-3.5C353.1,345.9,352.2,345.3,352.3,343.1z"/>
			</g>
		</g>
		<path id="XMLID_86_" class="st0" d="M275.2,308.7c0.3,0.2,0.5,0.3,0.8,0.6C276,309.3,275.7,308.9,275.2,308.7z"/>
		<g>
			<path class="st0" d="M286.3,255.9l-3.2-2.1c-2.2-1.3-4.3,0-5.7,1.5c-1.2,1.2-4,4.7-4.4,5.3c-11.7,14.4-42.3,62.4-42.3,62.4
				c-1,0.4-0.5-7,0.5-13c1.9-7.4,5.6-18.6,12.5-29.2l3-5.5c0,0,0.9-1.8-0.8-3.2c-1.5-1.1-3.7-2.4-6.2-3c-2.4-0.7-7-0.7-10.2,2.3
				c-4.7,4.1-13.1,15.3-19.1,27c-10,15.4-19.4,53-19.4,53c-1.7-51.6,48.2-126,48.2-126c4.1-5.5-0.4-7.5-0.4-7.5l-4.6-2.9
				c-3.8-2.2-7.2,1-9.2,3.4c-1,1.3-4.9,6.1-5.8,7.2c-17.1,21.3-59.1,87.2-59.1,87.2c-3.3-30.8,20.8-69,20.8-69
				c3.1-4.6,1.8-7.2,0.6-8.4c-0.5-0.5-3.8-2.8-4.9-3.3c-4.9-2.1-6.8,1.8-6.8,1.8c-9.1,14.1-44.2,81.8-44.2,81.8
				c6.2-25.8,32.9-68.2,32.9-68.2c2.9-5-7.2-8-7.2-8c-5.7-2.2-8.2,3-8.2,3c-8.1,13.7-12.4,19.6-14.4,22.2c-1.3,1.7-1,2.1,0.2,1.8
				c1.6-0.3,4.1-1.2,6.7-4.1c0,0,0.4,1.4-3.6,8.9c0,0-22.6,47.2-15.5,53.5c0,0,3.6,3,8.1-0.3c1-0.8,2.9-3.2,4.5-6.1
				c6.2-12.5,31.8-64.4,36.5-71.3c0,0-17.3,32.2-17.2,64c0,1.3,0,4.1,0.9,7.3c1.5,3.7,5.9,5.6,9.9,4.4c3.2-1.6,5.9-7.1,8-10.7
				c12.6-21.4,42.3-70.9,50.4-75.4c0,0-39.2,65-37.3,108.4c0,0-1.4,21.8,7.8,22.6c0,0,5.4,0.4,7.1-14.1c0,0,3.5-19.2,8.1-32
				c0,1.1,0.2,2.2,0.4,3.1c0.5,1.9,4.3,8.5,11.2,0.5c2.1-2.5,4.7-6.5,7.7-12.1c-0.3,3.8-0.3,7.8,0.1,12c0.1,0.9,0.8,3.4,1.3,4
				c1,1.1,3.4,2.4,6.4,1.4c1.1-0.4,1.8-1.4,2.4-2.5c5.5-9.5,32.2-54.9,38.8-58.6c0,0-23.7,38.3-26.1,68c-0.5,5.1-0.3,11,0,14.6
				c0.4,4.6,1.6,9.9,5.2,10.2c0,0,3.2,0.7,5.7-9.5c0,0,7-26.9,7.7-28c5.5-16.2,9.8-16.5,11.4-15.8c-3.4-2.2-7.5,2.1-8.5,3.5
				c-7.3,10.4-14.3,38.3-14.3,38.3c-1.2-36.5,34.2-89.2,34.2-89.2C289.3,257.4,286.3,255.9,286.3,255.9z M211.6,317.1
				c-0.5,0.8-1.3,0.4-1.4-0.1c-1.1-6.8,12.8-29.4,17.4-36.6c0.9-1.4,2.4-3.4,2.9-3.7c1.4-0.8,3-0.3,2.8,2c-0.2,0.8-0.6,1.6-0.6,1.6
				l0,0C228.7,290,215,311.8,211.6,317.1z"/>
		</g>
	</g>
</g>
</svg>
