<?xml version="1.0" encoding="utf-8"?>
<!-- Generator: Adobe Illustrator 16.0.0, SVG Export Plug-In . SVG Version: 6.00 Build 0)  -->
<!DOCTYPE svg PUBLIC "-//W3C//DTD SVG 1.0//EN" "http://www.w3.org/TR/2001/REC-SVG-20010904/DTD/svg10.dtd">
<svg version="1.0" id="Layer_1" xmlns="http://www.w3.org/2000/svg" xmlns:xlink="http://www.w3.org/1999/xlink" x="0px" y="0px"
	 width="210px" height="56px" viewBox="0 0 210 56" style="enable-background:new 0 0 210 56;" xml:space="preserve">
<style type="text/css">
<![CDATA[
	.st0{fill:#EF3B23;}
	.st1{fill:#58595B;}
	.st2{fill:#FFFFFF;}
]]>
</style>
<g>
	<path class="st0" d="M55.9,28c0,15.4-12.5,28-28,28c-15.5,0-28-12.5-28-28C0,12.5,12.5,0,28,0C43.4,0,55.9,12.5,55.9,28"/>
	<path class="st1" d="M75.2,37.9h12.4c0.5,0,0.8,0.2,0.8,0.7v2.7c0,0.5-0.2,0.8-0.8,0.8H71.1c-0.7,0-0.9-0.3-0.9-0.8V14.3
		c0-0.6,0.3-0.9,0.8-0.9h3.2c0.6,0,0.8,0.3,0.8,0.9V37.9z"/>
	<path class="st1" d="M96,41.3c-0.2,0.7-0.6,0.9-1.2,0.9h-3.4c-0.5,0-0.7-0.2-0.5-0.9l8.8-27c0.2-0.6,0.4-0.9,1.2-0.9h3.8
		c0.8,0,1,0.4,1.2,0.9l8.9,27.1c0.1,0.5,0,0.8-0.4,0.8h-3.8c-0.7,0-0.9-0.3-1.1-0.9l-1.8-6.2h-9.7L96,41.3z M104.7,24.8l-1.8-6.2
		h-0.2l-1.7,6.2L99.1,31h7.3L104.7,24.8z"/>
	<path class="st1" d="M131.3,42.2h-11c-0.7,0-0.9-0.3-0.9-0.8V14.3c0-0.5,0.2-0.8,0.9-0.8h9.9c5.8,0,8.7,3,8.7,7.6
		c0,1.6-0.6,4.6-3.5,5.9l0,0.1c3.5,1.2,4.3,4.7,4.3,6.9C139.6,39.1,135.7,42.2,131.3,42.2 M129.3,17.6h-5.2v7.5h5.6
		c2.2,0,3.9-1.6,3.9-3.7C133.7,19.2,132.4,17.6,129.3,17.6 M130,29.4h-5.8v8.6h5.8c3.5,0,4.5-1.9,4.5-4.3
		C134.5,31.4,133.2,29.4,130,29.4"/>
	<path class="st1" d="M150.5,30.3l-8.9-16.1c-0.2-0.4,0-0.8,0.4-0.8h3.7c0.7,0,0.9,0.2,1.2,0.7l3.5,6.8l2.5,4.8h0.3l2.6-4.9l3.5-6.5
		c0.3-0.6,0.5-0.9,1.2-0.9h3.6c0.6,0,0.7,0.4,0.5,0.8l-9.2,16.1v11c0,0.5-0.2,0.8-0.8,0.8h-3.2c-0.6,0-0.9-0.3-0.9-0.8V30.3z"/>
	<path class="st1" d="M168.2,14.3c0-0.6,0.3-0.9,0.9-0.9h16c0.5,0,0.8,0.3,0.8,0.8v2.7c0,0.5-0.2,0.8-0.9,0.8h-11.8v7.5h10.5
		c0.6,0,0.9,0.3,0.9,0.8v2.7c0,0.5-0.2,0.8-0.9,0.8h-10.5v8.5h12.2c0.5,0,0.8,0.3,0.8,0.8v2.6c0,0.6-0.2,0.8-0.8,0.8h-16.2
		c-0.6,0-0.9-0.3-0.9-0.8V14.3z"/>
	<path class="st1" d="M191.1,41.3c-1-0.4-1-0.8-0.9-1.3l0.4-1.8c0.2-0.7,0.4-0.7,1.2-0.6c2.3,0.2,5.7,0.6,7.7,0.6
		c3.7,0,5.6-1.3,5.6-3.8c0-3.1-1.3-3.9-5.2-4.6c-5.1-1-9.7-2.2-9.7-8.2c0-5.5,3.7-8.5,9.9-8.5c1.7,0,5.5,0.1,8,1.2
		c1,0.4,1,0.8,0.9,1.3l-0.4,1.8c-0.2,0.7-0.4,0.7-1.3,0.7c-2-0.3-4.4-0.6-6.9-0.6c-3.7,0-5,1.4-5,3.9c0,2.7,1.4,3.1,5.2,3.8
		c5,1,9.6,2.1,9.6,8.7c0,6.6-5,8.7-10.5,8.7C197.3,42.6,193.3,42.2,191.1,41.3"/>
	<path class="st2" d="M41.6,23c0.1-0.1,0.4-0.3,0.4-0.4c2-2,2.1-5.5,0.1-7.5c0,0,0,0,0,0l0,0c-0.2-0.2-0.4-0.3-0.6-0.5
		c-2-1.5-5.1-1.4-6.9,0.5c0,0-0.3,0.3-0.4,0.4c-2,2.6-1.4,7.6-0.9,8.3C33.7,24.2,39.2,25.1,41.6,23"/>
	<path class="st2" d="M36.7,28.4h-7.8v-8c0-4.2-3.2-7.1-7.1-7.1c-3.9,0-7.1,2.9-7.1,7.1v0.1v21.7h21.9c3.8,0,6.9-3.1,6.9-6.9
		C43.6,31.4,40.9,28.4,36.7,28.4"/>
</g>
</svg>
